<?xml version="1.0" encoding="utf-8"?>
<!-- Generator: Adobe Illustrator 26.0.0, SVG Export Plug-In . SVG Version: 6.00 Build 0)  -->
<svg version="1.1" id="Layer_1" xmlns="http://www.w3.org/2000/svg" xmlns:xlink="http://www.w3.org/1999/xlink" x="0px" y="0px"
	 viewBox="0 0 612 165" style="enable-background:new 0 0 612 165;" xml:space="preserve">
<style type="text/css">
	.st0{fill:#8BA292;}
</style>
<g>
	<path class="st0" d="M343.39,163.35c-3.85,0-8.2-0.65-13.08-1.94c-4.62-1.03-8.72-2.46-12.3-4.28c-3.33-2.08-5-4.02-5-5.84
		c0-4.15,3.85-6.22,11.54-6.22c4.36,0,9.49-0.91,15.39-2.72c5.9-1.82,11.28-3.76,16.15-5.84c5.13-2.34,8.46-4.02,10.01-5.05
		c-1.02-2.08-3.71-5.58-8.08-10.5c-4.36-4.93-9.1-10.63-14.23-17.11c-4.87-6.48-8.97-12.97-12.3-19.45
		c-3.33,6.48-7.82,14-13.46,22.56c-5.38,8.56-10.64,16.34-15.77,23.34c-3.33,4.67-7.69,9.33-13.08,14
		c-5.38,4.67-11.15,7.01-17.31,7.01c-4.87,0-8.2-1.56-10.01-4.67c-1.79-3.11-2.69-7.9-2.69-14.39c0-3.37,0.12-7.01,0.38-10.89
		c0.26-3.88,0.77-8.3,1.54-13.23c2.31-17.63,4.87-31.64,7.69-42c2.81-10.63,6.4-15.94,10.77-15.94c3.59,0,6.8,2.08,9.61,6.22
		c2.81,4.15,4.74,7.13,5.77,8.95c-1.79,3.37-4.23,8.81-7.3,16.34c-2.83,7.52-5.38,15.43-7.69,23.72c-2.31,8.3-3.47,15.56-3.47,21.78
		s1.41,9.34,4.23,9.34c0.76,0,1.41-0.14,1.92-0.39c5.64-2.34,11.28-7.13,16.93-14.39c5.9-7.26,11.28-15.05,16.15-23.34
		c5.13-8.3,9.35-15.3,12.7-21.01c-1.54-3.88-2.31-7.78-2.31-11.67c0-7.26,1.93-14,5.77-20.22c3.85-6.48,8.59-12.32,14.23-17.5
		c5.9-5.45,11.8-10.12,17.69-14c6.16-4.15,11.41-7.52,15.77-10.12c1.79-1.03,3.71-1.56,5.77-1.56c4.11,0,7.95,1.43,11.54,4.28
		c3.85,2.85,5.77,5.58,5.77,8.16c0,0.26-0.26,0.91-0.77,1.94c-2.05,2.34-4.36,5.96-6.92,10.89c-2.31,4.93-4.36,10.12-6.16,15.56
		c-1.79,5.19-2.69,9.98-2.69,14.39c0,4.93-1.03,7.39-3.07,7.39c-1.02,0-1.79-1.03-2.31-3.11s-0.77-4.02-0.77-5.84
		c0-5.19,0.77-10.76,2.31-16.73c1.79-5.96,2.95-10.24,3.47-12.83c-2.57,0-6.28,1.68-11.15,5.05c-4.87,3.37-9.87,7.78-15,13.23
		c-5.13,5.45-9.49,11.15-13.08,17.11c-3.59,5.7-5.38,11.15-5.38,16.34c0,6.74,1.67,13.09,5,19.05c3.59,5.96,7.95,11.54,13.08,16.73
		c5.38,5.19,10.64,9.86,15.77,14c2.05-0.77,5-2.08,8.85-3.88c3.85-2.08,8.33-6.22,13.46-12.45c5.38-6.22,11.03-15.82,16.93-28.79
		c0.52-0.77,1.28-1.17,2.31-1.17c1.54,0,2.31,1.03,2.31,3.11c0,1.82-0.52,3.88-1.54,6.22c-5.13,12.71-11.15,22.56-18.07,29.56
		c-6.66,6.74-13.46,11.92-20.38,15.56c0,0.52,0,1.17,0,1.94c0.26,0.52,0.38,1.03,0.38,1.56c0,5.45-1.93,9.98-5.77,13.62
		c-3.59,3.37-8.2,5.96-13.84,7.78C354.17,162.58,348.78,163.35,343.39,163.35z M292.62,33.83c-1.54,0-3.21-0.26-5-0.77
		c-1.54-0.77-3.07-1.56-4.62-2.34c-1.02-0.77-1.54-1.82-1.54-3.11c0-2.34,1.41-5.19,4.23-8.56c2.81-3.63,6.4-6.74,10.77-9.33
		c4.36-2.59,8.59-3.88,12.7-3.88c2.31,0,3.47,0.65,3.47,1.94c0,1.03-1.16,2.34-3.47,3.88c-2.81,2.08-4.87,4.93-6.16,8.56
		c-1.29,3.63-2.57,6.87-3.85,9.72C297.88,32.54,295.71,33.83,292.62,33.83z"/>
	<path class="st0" d="M45.59,103.28H34.77V85.96H19.75v17.32H8.93V60.74h10.82v16.72h15.02V60.74h10.82
		C45.59,60.74,45.59,103.28,45.59,103.28z"/>
	<path class="st0" d="M64.55,78.06c-1.6,0-2.41,0.81-2.41,2.43v3.34h10.21v-3.34c0-1.62-0.8-2.43-2.41-2.43H64.55z M81.67,102.68
		c-7.73,0.81-14.74,1.22-21.03,1.22c-2.73,0-4.9-0.84-6.55-2.5c-1.65-1.66-2.46-3.87-2.46-6.63V80.18c0-3.04,0.84-5.41,2.52-7.1
		c1.72-1.75,4.08-2.62,7.09-2.62h12.02c3,0,5.35,0.87,7.03,2.62c1.72,1.7,2.58,4.07,2.58,7.1v11.25H62.14v2.43
		c0,0.6,0.2,1.12,0.6,1.52c0.41,0.41,0.9,0.6,1.5,0.6c3.97,0,9.77-0.31,17.43-0.91C81.67,95.08,81.67,102.68,81.67,102.68z"/>
	<path class="st0" d="M100.88,95.37c2.13,0,4.52-0.41,7.22-1.22v-3.65h-8.72c-0.6,0-1.11,0.2-1.5,0.6c-0.41,0.41-0.6,0.91-0.6,1.52
		v0.6c0,0.6,0.2,1.12,0.6,1.52c0.41,0.41,0.9,0.6,1.5,0.6h1.5V95.37z M89.76,71.68c7.33-0.81,13.94-1.22,19.83-1.22
		c2.73,0,4.9,0.84,6.55,2.5c1.65,1.66,2.46,3.87,2.46,6.63v23.7h-9.32l-0.6-3.04c-1.88,1.25-3.82,2.19-5.83,2.79
		c-1.97,0.57-3.63,0.85-4.99,0.85h-2.1c-2.73,0-4.9-0.84-6.55-2.5c-1.65-1.66-2.46-3.87-2.46-6.63v-2.73c0-2.75,0.82-4.97,2.46-6.63
		c1.65-1.66,3.82-2.5,6.55-2.5h12.32v-2.43c0-0.6-0.2-1.12-0.6-1.52c-0.41-0.41-0.9-0.6-1.5-0.6c-2.61,0-5.49,0.12-8.65,0.37
		c-3.12,0.25-5.65,0.43-7.57,0.54v-7.58H89.76z"/>
	<path class="st0" d="M140.22,103.28c-2.68,0.41-5.25,0.6-7.69,0.6c-2.41,0-4.43-0.84-6.07-2.5c-1.65-1.66-2.46-3.87-2.46-6.63
		V60.72h10.52v32.51c0,0.6,0.2,1.12,0.6,1.52s0.9,0.6,1.5,0.6h3.6V103.28z"/>
	<path class="st0" d="M165.48,103.28c-3.88,0.41-7.69,0.6-11.42,0.6c-2.73,0-4.9-0.84-6.55-2.5s-2.47-3.87-2.47-6.63V79.27h-3.6
		v-8.2h3.6l1.2-7.29h9.32v7.29h7.51v8.2h-7.51v13.98c0,0.6,0.2,1.12,0.6,1.52s0.9,0.6,1.5,0.6h7.82L165.48,103.28L165.48,103.28z"/>
	<path class="st0" d="M180.23,71.68c3.88-0.81,7.29-1.22,10.21-1.22h2.7c2.73,0,4.9,0.84,6.55,2.5s2.46,3.87,2.46,6.63v23.7h-10.51
		V80.8c0-0.6-0.2-1.12-0.6-1.52c-0.41-0.41-0.9-0.6-1.5-0.6h-2.1c-1.52,0-2.93,0.09-4.2,0.25c-1.24,0.16-2.25,0.28-3.01,0.37v24.01
		h-10.51V60.75h10.51L180.23,71.68L180.23,71.68z"/>
	<path class="st0" d="M215.98,114.22c-2.13,0-4.73-0.2-7.82-0.6v-7.9h5.41c1.52,0,2.51-0.43,2.95-1.28
		c0.48-0.85,0.41-2.04-0.25-3.59l-12.32-29.78h11.12l7.51,20.66l6.31-20.66h11.12L228,104.48c-1.17,3.2-2.67,5.62-4.51,7.23
		C221.66,113.4,219.15,114.22,215.98,114.22z"/>
	<path class="st0" d="M461.06,103.28h-10.82V69.24h-12.62v-8.51h36.05v8.51h-12.62v34.04H461.06z"/>
	<path class="st0" d="M486.92,95.37c2.13,0,4.52-0.41,7.22-1.22v-3.65h-8.72c-0.6,0-1.11,0.2-1.5,0.6c-0.41,0.41-0.6,0.91-0.6,1.52
		v0.6c0,0.6,0.2,1.12,0.6,1.52c0.41,0.41,0.9,0.6,1.5,0.6h1.5V95.37z M475.8,71.68c7.33-0.81,13.94-1.22,19.83-1.22
		c2.73,0,4.9,0.84,6.55,2.5c1.65,1.66,2.46,3.87,2.46,6.63v23.7h-9.32l-0.6-3.04c-1.88,1.25-3.82,2.19-5.83,2.79
		c-1.97,0.57-3.63,0.85-4.99,0.85h-2.1c-2.73,0-4.9-0.84-6.55-2.5c-1.65-1.66-2.47-3.87-2.47-6.63v-2.73c0-2.75,0.82-4.97,2.47-6.63
		c1.65-1.66,3.82-2.5,6.55-2.5h12.32v-2.43c0-0.6-0.2-1.12-0.6-1.52c-0.41-0.41-0.9-0.6-1.5-0.6c-2.61,0-5.49,0.12-8.65,0.37
		c-3.12,0.25-5.65,0.43-7.57,0.54v-7.58H475.8z"/>
	<path class="st0" d="M508.84,94.77c8.14,0.6,14.54,0.91,19.22,0.91c0.6,0,1.11-0.2,1.5-0.6c0.41-0.41,0.6-0.91,0.6-1.52v-2.13
		h-12.92c-2.73,0-4.9-0.84-6.55-2.5c-1.65-1.66-2.47-3.87-2.47-6.63v-2.13c0-2.75,0.82-4.97,2.47-6.63c1.65-1.66,3.82-2.5,6.55-2.5
		h20.43v7.9h-16.83c-0.6,0-1.11,0.2-1.5,0.6c-0.41,0.41-0.6,0.91-0.6,1.52c0,0.61,0.2,1.12,0.6,1.52c0.39,0.41,0.9,0.6,1.5,0.6
		h10.82c2.73,0,4.9,0.84,6.55,2.5s2.46,3.87,2.46,6.63v2.43c0,2.75-0.82,4.97-2.46,6.63c-1.65,1.66-3.82,2.5-6.55,2.5
		c-7.09,0-14.7-0.41-22.84-1.22v-7.9H508.84z"/>
	<path class="st0" d="M567.13,103.28c-3.88,0.41-7.69,0.6-11.42,0.6c-2.73,0-4.9-0.84-6.55-2.5s-2.46-3.87-2.46-6.63V79.27h-3.6
		v-8.2h3.6l1.2-7.29h9.32v7.29h7.51v8.2h-7.51v13.98c0,0.6,0.2,1.12,0.6,1.52s0.9,0.6,1.5,0.6h7.82v7.9H567.13z"/>
	<path class="st0" d="M578.61,114.22c-2.13,0-4.73-0.2-7.82-0.6v-7.9h5.41c1.52,0,2.51-0.43,2.95-1.28
		c0.48-0.85,0.41-2.04-0.25-3.59l-12.32-29.78h11.11l7.51,20.66l6.31-20.66h11.11l-12.02,33.42c-1.16,3.2-2.67,5.62-4.51,7.23
		C584.28,113.4,581.77,114.22,578.61,114.22z"/>
</g>
</svg>
