<?xml version="1.0" encoding="utf-8"?>
<!-- Generator: Adobe Illustrator 26.0.0, SVG Export Plug-In . SVG Version: 6.00 Build 0)  -->
<svg version="1.1" id="Layer_1" xmlns="http://www.w3.org/2000/svg" xmlns:xlink="http://www.w3.org/1999/xlink" x="0px" y="0px"
	 viewBox="0 0 1920 1080" style="enable-background:new 0 0 1920 1080;" xml:space="preserve">
<style type="text/css">
	.st0{fill:#F5F5F5;}
	.st1{fill:none;}
</style>
<g>
	<path class="st0" d="M1041.26,573c0,51.24-41.53,92.77-92.76,92.77s-92.76-41.53-92.76-92.77c0-51.23,41.53-92.76,92.76-92.76
		S1041.26,521.77,1041.26,573z"/>
	<path class="st0" d="M1175.02,464.55c-1.24-27.13-5.76-41.86-9.57-51.67c-5.06-13-11.09-22.26-20.83-32
		c-9.73-9.74-19.01-15.77-31.99-20.82c-9.81-3.81-24.55-8.35-51.68-9.59c-29.34-1.34-38.14-1.62-112.45-1.62
		c-74.31,0-83.11,0.29-112.45,1.62c-27.13,1.24-41.88,5.78-51.68,9.59c-12.99,5.05-22.26,11.08-31.99,20.82
		c-9.74,9.74-15.77,19.01-20.83,32c-3.81,9.81-8.34,24.54-9.57,51.67c-1.34,29.34-1.62,38.14-1.62,112.45s0.29,83.11,1.62,112.46
		c1.24,27.13,5.76,41.86,9.57,51.67c5.06,12.99,11.09,22.26,20.83,32c9.73,9.74,19.01,15.77,31.99,20.82
		c9.81,3.81,24.55,8.35,51.68,9.59c29.34,1.34,38.14,1.62,112.45,1.62c74.31,0,83.11-0.29,112.45-1.62
		c27.13-1.24,41.88-5.78,51.68-9.59c12.99-5.05,22.26-11.08,31.99-20.82c9.74-9.74,15.77-19.02,20.83-32
		c3.81-9.81,8.34-24.54,9.57-51.67c1.35-29.35,1.62-38.15,1.62-112.46S1176.36,493.89,1175.02,464.55z M948.49,719.91
		c-78.92,0-142.91-63.98-142.91-142.91s63.98-142.91,142.91-142.91S1091.4,498.07,1091.4,577S1027.42,719.91,948.49,719.91z
		 M1097.04,461.84c-18.44,0-33.39-14.95-33.39-33.39c0-18.44,14.95-33.39,33.39-33.39c18.45,0,33.39,14.95,33.39,33.39
		C1130.44,446.89,1115.49,461.84,1097.04,461.84z"/>
	<path class="st0" d="M948.5,131c-244.11,0-442,197.89-442,442c0,244.12,197.89,442,442,442s442-197.88,442-442
		C1390.5,328.89,1192.61,131,948.5,131z M1225.12,687.75c-1.35,29.62-6.05,49.85-12.93,67.55c-7.11,18.3-16.63,33.83-32.1,49.3
		s-30.99,24.98-49.29,32.09c-17.7,6.88-37.93,11.58-67.56,12.94c-29.68,1.35-39.16,1.67-114.74,1.67s-85.05-0.32-114.74-1.67
		c-29.63-1.36-49.85-6.06-67.56-12.94c-18.3-7.11-33.81-16.62-49.29-32.09c-15.47-15.47-24.99-31-32.1-49.3
		c-6.88-17.7-11.58-37.93-12.93-67.55c-1.36-29.68-1.68-39.16-1.68-114.75c0-75.58,0.32-85.05,1.68-114.74
		c1.35-29.62,6.05-49.85,12.93-67.55c7.11-18.3,16.63-33.83,32.1-49.3c15.47-15.47,30.99-24.99,49.29-32.1
		c17.71-6.88,37.93-11.58,67.56-12.93c29.68-1.36,39.16-1.68,114.74-1.68s85.05,0.32,114.74,1.68c29.63,1.35,49.86,6.05,67.56,12.93
		c18.3,7.11,33.81,16.63,49.29,32.1c15.47,15.47,24.99,31,32.1,49.3c6.88,17.7,11.58,37.93,12.93,67.55
		c1.36,29.68,1.68,39.16,1.68,114.74C1226.8,648.59,1226.48,658.07,1225.12,687.75z"/>
	<g>
		<g>
			<path class="st1" d="M1225.12,458.26c-1.35-29.62-6.05-49.85-12.93-67.55c-7.11-18.3-16.63-33.83-32.1-49.3
				c-15.47-15.47-30.99-24.99-49.29-32.1c-17.7-6.88-37.93-11.58-67.56-12.93c-29.68-1.36-39.16-1.68-114.74-1.68
				s-85.05,0.32-114.74,1.68c-29.63,1.35-49.85,6.05-67.56,12.93c-18.3,7.11-33.81,16.63-49.29,32.1
				c-15.47,15.47-24.99,31-32.1,49.3c-6.88,17.7-11.58,37.93-12.93,67.55c-1.36,29.68-1.68,39.16-1.68,114.74
				c0,75.59,0.32,85.07,1.68,114.75c1.35,29.62,6.05,49.85,12.93,67.55c7.11,18.3,16.63,33.83,32.1,49.3s30.99,24.98,49.29,32.09
				c17.71,6.88,37.93,11.58,67.56,12.94c29.68,1.35,39.16,1.67,114.74,1.67s85.05-0.32,114.74-1.67
				c29.63-1.36,49.86-6.06,67.56-12.94c18.3-7.11,33.81-16.62,49.29-32.09c15.47-15.47,24.99-31,32.1-49.3
				c6.88-17.7,11.58-37.93,12.93-67.55c1.36-29.68,1.68-39.16,1.68-114.75C1226.8,497.42,1226.48,487.95,1225.12,458.26z
				 M1175.03,685.46c-1.24,27.13-5.76,41.86-9.57,51.67c-5.06,12.99-11.09,22.26-20.83,32c-9.73,9.74-19.01,15.77-31.99,20.82
				c-9.81,3.81-24.55,8.35-51.68,9.59c-29.34,1.34-38.14,1.62-112.45,1.62s-83.11-0.29-112.45-1.62
				c-27.13-1.24-41.88-5.78-51.68-9.59c-12.99-5.05-22.26-11.08-31.99-20.82c-9.74-9.74-15.77-19.02-20.83-32
				c-3.81-9.81-8.34-24.54-9.57-51.67c-1.34-29.35-1.62-38.15-1.62-112.46s0.29-83.11,1.62-112.45c1.24-27.13,5.76-41.86,9.57-51.67
				c5.06-13,11.09-22.26,20.83-32c9.73-9.74,19.01-15.77,31.99-20.82c9.81-3.81,24.55-8.35,51.68-9.59
				c29.34-1.34,38.14-1.62,112.45-1.62s83.11,0.29,112.45,1.62c27.13,1.24,41.88,5.78,51.68,9.59
				c12.99,5.05,22.26,11.08,31.99,20.82c9.74,9.74,15.77,19.01,20.83,32c3.81,9.81,8.34,24.54,9.57,51.67
				c1.35,29.34,1.62,38.14,1.62,112.45S1176.37,656.11,1175.03,685.46z"/>
			<path class="st1" d="M948.5,430.09c-78.92,0-142.91,63.98-142.91,142.91s63.98,142.91,142.91,142.91s142.91-63.98,142.91-142.91
				S1027.43,430.09,948.5,430.09z M948.5,665.77c-51.23,0-92.76-41.53-92.76-92.77c0-51.23,41.53-92.76,92.76-92.76
				s92.76,41.53,92.76,92.76C1041.26,624.24,999.73,665.77,948.5,665.77z"/>
			<circle class="st1" cx="1097.05" cy="424.45" r="33.39"/>
		</g>
	</g>
</g>
</svg>
