<?xml version="1.0" encoding="utf-8"?>
<!-- Generator: Adobe Illustrator 26.0.0, SVG Export Plug-In . SVG Version: 6.00 Build 0)  -->
<svg version="1.1" id="Layer_1" xmlns="http://www.w3.org/2000/svg" xmlns:xlink="http://www.w3.org/1999/xlink" x="0px" y="0px"
	 viewBox="0 0 612 792" style="enable-background:new 0 0 612 792;" xml:space="preserve">
<style type="text/css">
	.st0{fill:#8BA292;}
</style>
<g>
	<path class="st0" d="M329.48,461.5c-3.13,0-6.67-0.53-10.64-1.58c-3.76-0.84-7.09-2-10.01-3.48c-2.71-1.69-4.07-3.27-4.07-4.75
		c0-3.38,3.13-5.06,9.39-5.06c3.55,0,7.72-0.74,12.52-2.21c4.8-1.48,9.18-3.06,13.14-4.75c4.17-1.9,6.88-3.27,8.14-4.11
		c-0.83-1.69-3.02-4.54-6.57-8.54c-3.55-4.01-7.4-8.65-11.58-13.92c-3.96-5.27-7.3-10.55-10.01-15.82
		c-2.71,5.27-6.36,11.39-10.95,18.35c-4.38,6.96-8.66,13.29-12.83,18.99c-2.71,3.8-6.26,7.59-10.64,11.39
		c-4.38,3.8-9.07,5.7-14.08,5.7c-3.96,0-6.67-1.27-8.14-3.8c-1.46-2.53-2.19-6.43-2.19-11.71c0-2.74,0.1-5.7,0.31-8.86
		c0.21-3.16,0.63-6.75,1.25-10.76c1.88-14.34,3.96-25.74,6.26-34.17c2.29-8.65,5.21-12.97,8.76-12.97c2.92,0,5.53,1.69,7.82,5.06
		c2.29,3.38,3.86,5.8,4.69,7.28c-1.46,2.74-3.44,7.17-5.94,13.29c-2.3,6.12-4.38,12.55-6.26,19.3c-1.88,6.75-2.82,12.66-2.82,17.72
		c0,5.06,1.15,7.6,3.44,7.6c0.62,0,1.15-0.11,1.56-0.32c4.59-1.9,9.18-5.8,13.77-11.71c4.8-5.91,9.18-12.24,13.14-18.99
		c4.17-6.75,7.61-12.45,10.33-17.09c-1.25-3.16-1.88-6.33-1.88-9.49c0-5.91,1.57-11.39,4.69-16.45c3.13-5.27,6.99-10.02,11.58-14.24
		c4.8-4.43,9.6-8.23,14.39-11.39c5.01-3.38,9.28-6.12,12.83-8.23c1.46-0.84,3.02-1.27,4.69-1.27c3.34,0,6.47,1.16,9.39,3.48
		c3.13,2.32,4.69,4.54,4.69,6.64c0,0.21-0.21,0.74-0.63,1.58c-1.67,1.9-3.55,4.85-5.63,8.86c-1.88,4.01-3.55,8.23-5.01,12.66
		c-1.46,4.22-2.19,8.12-2.19,11.71c0,4.01-0.84,6.01-2.5,6.01c-0.83,0-1.46-0.84-1.88-2.53s-0.63-3.27-0.63-4.75
		c0-4.22,0.63-8.75,1.88-13.61c1.46-4.85,2.4-8.33,2.82-10.44c-2.09,0-5.11,1.37-9.07,4.11c-3.96,2.74-8.03,6.33-12.2,10.76
		c-4.17,4.43-7.72,9.07-10.64,13.92c-2.92,4.64-4.38,9.07-4.38,13.29c0,5.48,1.36,10.65,4.07,15.5c2.92,4.85,6.47,9.39,10.64,13.61
		c4.38,4.22,8.66,8.02,12.83,11.39c1.67-0.63,4.07-1.69,7.2-3.16c3.13-1.69,6.78-5.06,10.95-10.13c4.38-5.06,8.97-12.87,13.77-23.42
		c0.42-0.63,1.04-0.95,1.88-0.95c1.25,0,1.88,0.84,1.88,2.53c0,1.48-0.42,3.16-1.25,5.06c-4.17,10.34-9.07,18.35-14.7,24.05
		c-5.42,5.48-10.95,9.7-16.58,12.66c0,0.42,0,0.95,0,1.58c0.21,0.42,0.31,0.84,0.31,1.27c0,4.43-1.57,8.12-4.69,11.08
		c-2.92,2.74-6.67,4.85-11.26,6.33C338.25,460.87,333.87,461.5,329.48,461.5z M288.18,356.13c-1.25,0-2.61-0.21-4.07-0.63
		c-1.25-0.63-2.5-1.27-3.76-1.9c-0.83-0.63-1.25-1.48-1.25-2.53c0-1.9,1.15-4.22,3.44-6.96c2.29-2.95,5.21-5.48,8.76-7.59
		c3.55-2.11,6.99-3.16,10.33-3.16c1.88,0,2.82,0.53,2.82,1.58c0,0.84-0.94,1.9-2.82,3.16c-2.29,1.69-3.96,4.01-5.01,6.96
		s-2.09,5.59-3.13,7.91C292.46,355.08,290.69,356.13,288.18,356.13z"/>
	<path class="st0" d="M87.21,412.63h-8.8v-14.09H66.19v14.09h-8.8v-34.61h8.8v13.6h12.22v-13.6h8.8V412.63z"/>
	<path class="st0" d="M102.64,392.11c-1.3,0-1.96,0.66-1.96,1.98v2.72h8.31v-2.72c0-1.32-0.65-1.98-1.96-1.98H102.64z
		 M116.57,412.14c-6.29,0.66-11.99,0.99-17.11,0.99c-2.22,0-3.99-0.68-5.33-2.03c-1.34-1.35-2-3.15-2-5.39v-11.87
		c0-2.47,0.68-4.4,2.05-5.78c1.4-1.42,3.32-2.13,5.77-2.13h9.78c2.44,0,4.35,0.71,5.72,2.13c1.4,1.38,2.1,3.31,2.1,5.78v9.15h-16.87
		v1.98c0,0.49,0.16,0.91,0.49,1.24c0.33,0.33,0.73,0.49,1.22,0.49c3.23,0,7.95-0.25,14.18-0.74V412.14z"/>
	<path class="st0" d="M132.19,406.2c1.73,0,3.68-0.33,5.87-0.99v-2.97h-7.09c-0.49,0-0.9,0.16-1.22,0.49
		c-0.33,0.33-0.49,0.74-0.49,1.24v0.49c0,0.49,0.16,0.91,0.49,1.24c0.33,0.33,0.73,0.49,1.22,0.49H132.19z M123.15,386.92
		c5.96-0.66,11.34-0.99,16.13-0.99c2.22,0,3.99,0.68,5.33,2.03c1.34,1.35,2,3.15,2,5.39v19.28h-7.58l-0.49-2.47
		c-1.53,1.02-3.11,1.78-4.74,2.27c-1.6,0.46-2.95,0.69-4.06,0.69h-1.71c-2.22,0-3.99-0.68-5.33-2.03c-1.34-1.35-2-3.15-2-5.39v-2.22
		c0-2.24,0.67-4.04,2-5.39c1.34-1.35,3.11-2.03,5.33-2.03h10.02v-1.98c0-0.49-0.16-0.91-0.49-1.24c-0.33-0.33-0.73-0.49-1.22-0.49
		c-2.12,0-4.47,0.1-7.04,0.3c-2.54,0.2-4.6,0.35-6.16,0.44V386.92z"/>
	<path class="st0" d="M164.2,412.63c-2.18,0.33-4.27,0.49-6.26,0.49c-1.96,0-3.6-0.68-4.94-2.03c-1.34-1.35-2-3.15-2-5.39v-27.69
		h8.56v26.45c0,0.49,0.16,0.91,0.49,1.24c0.33,0.33,0.73,0.49,1.22,0.49h2.93V412.63z"/>
	<path class="st0" d="M184.75,412.63c-3.16,0.33-6.26,0.49-9.29,0.49c-2.22,0-3.99-0.68-5.33-2.03c-1.34-1.35-2.01-3.15-2.01-5.39
		V393.1h-2.93v-6.67h2.93l0.98-5.93h7.58v5.93h6.11v6.67h-6.11v11.37c0,0.49,0.16,0.91,0.49,1.24c0.33,0.33,0.73,0.49,1.22,0.49
		h6.36V412.63z"/>
	<path class="st0" d="M196.75,386.92c3.16-0.66,5.93-0.99,8.31-0.99h2.2c2.22,0,3.99,0.68,5.33,2.03c1.34,1.35,2,3.15,2,5.39v19.28
		h-8.55v-18.29c0-0.49-0.16-0.91-0.49-1.24c-0.33-0.33-0.73-0.49-1.22-0.49h-1.71c-1.24,0-2.38,0.07-3.42,0.2
		c-1.01,0.13-1.83,0.23-2.45,0.3v19.53h-8.55v-34.61h8.55V386.92z"/>
	<path class="st0" d="M225.83,421.53c-1.73,0-3.85-0.16-6.36-0.49v-6.43h4.4c1.24,0,2.04-0.35,2.4-1.04
		c0.39-0.69,0.33-1.66-0.2-2.92l-10.02-24.23h9.05l6.11,16.81l5.13-16.81h9.05l-9.78,27.19c-0.95,2.6-2.17,4.57-3.67,5.88
		C230.45,420.86,228.41,421.53,225.83,421.53z"/>
	<path class="st0" d="M425.21,412.63h-8.8v-27.69h-10.27v-6.92h29.33v6.92h-10.27V412.63z"/>
	<path class="st0" d="M446.25,406.2c1.73,0,3.68-0.33,5.87-0.99v-2.97h-7.09c-0.49,0-0.9,0.16-1.22,0.49
		c-0.33,0.33-0.49,0.74-0.49,1.24v0.49c0,0.49,0.16,0.91,0.49,1.24c0.33,0.33,0.73,0.49,1.22,0.49H446.25z M437.2,386.92
		c5.96-0.66,11.34-0.99,16.13-0.99c2.22,0,3.99,0.68,5.33,2.03c1.34,1.35,2,3.15,2,5.39v19.28h-7.58l-0.49-2.47
		c-1.53,1.02-3.11,1.78-4.74,2.27c-1.6,0.46-2.95,0.69-4.06,0.69h-1.71c-2.22,0-3.99-0.68-5.33-2.03c-1.34-1.35-2.01-3.15-2.01-5.39
		v-2.22c0-2.24,0.67-4.04,2.01-5.39c1.34-1.35,3.11-2.03,5.33-2.03h10.02v-1.98c0-0.49-0.16-0.91-0.49-1.24s-0.73-0.49-1.22-0.49
		c-2.12,0-4.47,0.1-7.04,0.3c-2.54,0.2-4.6,0.35-6.16,0.44V386.92z"/>
	<path class="st0" d="M464.08,405.71c6.62,0.49,11.83,0.74,15.64,0.74c0.49,0,0.9-0.16,1.22-0.49c0.33-0.33,0.49-0.74,0.49-1.24
		v-1.73h-10.51c-2.22,0-3.99-0.68-5.33-2.03c-1.34-1.35-2.01-3.15-2.01-5.39v-1.73c0-2.24,0.67-4.04,2.01-5.39
		c1.34-1.35,3.11-2.03,5.33-2.03h16.62v6.43h-13.69c-0.49,0-0.9,0.16-1.22,0.49c-0.33,0.33-0.49,0.74-0.49,1.24s0.16,0.91,0.49,1.24
		c0.32,0.33,0.73,0.49,1.22,0.49h8.8c2.22,0,3.99,0.68,5.33,2.03c1.34,1.35,2,3.15,2,5.39v1.98c0,2.24-0.67,4.04-2,5.39
		c-1.34,1.35-3.11,2.03-5.33,2.03c-5.77,0-11.96-0.33-18.58-0.99V405.71z"/>
	<path class="st0" d="M511.5,412.63c-3.16,0.33-6.26,0.49-9.29,0.49c-2.22,0-3.99-0.68-5.33-2.03s-2-3.15-2-5.39V393.1h-2.93v-6.67
		h2.93l0.98-5.93h7.58v5.93h6.11v6.67h-6.11v11.37c0,0.49,0.16,0.91,0.49,1.24c0.33,0.33,0.73,0.49,1.22,0.49h6.36V412.63z"/>
	<path class="st0" d="M520.84,421.53c-1.73,0-3.85-0.16-6.36-0.49v-6.43h4.4c1.24,0,2.04-0.35,2.4-1.04
		c0.39-0.69,0.33-1.66-0.2-2.92l-10.02-24.23h9.04l6.11,16.81l5.13-16.81h9.04l-9.78,27.19c-0.94,2.6-2.17,4.57-3.67,5.88
		C525.45,420.86,523.41,421.53,520.84,421.53z"/>
</g>
</svg>
