<?xml version="1.0" encoding="utf-8"?>
<!-- Generator: Adobe Illustrator 26.0.0, SVG Export Plug-In . SVG Version: 6.00 Build 0)  -->
<svg version="1.1" id="Layer_1" xmlns="http://www.w3.org/2000/svg" xmlns:xlink="http://www.w3.org/1999/xlink" x="0px" y="0px"
	 viewBox="0 0 612 792" style="enable-background:new 0 0 612 792;" xml:space="preserve">
<style type="text/css">
	.st0{fill:#F36F62;}
	.st1{fill:#EEE5DD;}
</style>
<path class="st0" d="M604.4,400.35c0,164.93-133.7,298.63-298.63,298.63c-164.93,0-298.63-133.7-298.63-298.63
	c0-164.93,133.7-298.63,298.63-298.63C470.7,101.72,604.4,235.42,604.4,400.35z"/>
<path class="st1" d="M316.7,533.65c-5.2,0-11.1-0.87-17.69-2.6c-6.24-1.39-11.79-3.3-16.65-5.72c-4.51-2.77-6.76-5.38-6.76-7.8
	c0-5.55,5.2-8.32,15.61-8.32c5.9,0,12.83-1.21,20.81-3.64c7.98-2.43,15.26-5.03,21.85-7.8c6.94-3.12,11.45-5.38,13.53-6.76
	c-1.39-2.77-5.03-7.46-10.93-14.05c-5.9-6.59-12.31-14.22-19.25-22.89c-6.59-8.67-12.14-17.34-16.65-26.01
	c-4.51,8.67-10.58,18.73-18.21,30.17c-7.28,11.45-14.39,21.85-21.33,31.22c-4.51,6.24-10.41,12.49-17.69,18.73
	c-7.28,6.24-15.09,9.36-23.41,9.36c-6.59,0-11.1-2.08-13.53-6.24c-2.43-4.16-3.64-10.58-3.64-19.25c0-4.51,0.17-9.36,0.52-14.57
	c0.35-5.2,1.04-11.1,2.08-17.69c3.12-23.59,6.59-42.31,10.41-56.19c3.82-14.22,8.67-21.33,14.57-21.33c4.86,0,9.19,2.77,13.01,8.32
	c3.82,5.55,6.42,9.54,7.8,11.97c-2.43,4.51-5.72,11.79-9.88,21.85c-3.82,10.06-7.28,20.64-10.41,31.74s-4.68,20.81-4.68,29.13
	c0,8.32,1.91,12.49,5.72,12.49c1.04,0,1.91-0.17,2.6-0.52c7.63-3.12,15.26-9.54,22.89-19.25c7.98-9.71,15.26-20.12,21.85-31.22
	c6.94-11.1,12.66-20.46,17.17-28.09c-2.08-5.2-3.12-10.41-3.12-15.61c0-9.71,2.6-18.73,7.8-27.05c5.2-8.67,11.62-16.47,19.25-23.41
	c7.98-7.28,15.95-13.53,23.93-18.73c8.32-5.55,15.43-10.06,21.33-13.53c2.43-1.39,5.03-2.08,7.8-2.08c5.55,0,10.75,1.91,15.61,5.72
	c5.2,3.82,7.8,7.46,7.8,10.93c0,0.35-0.35,1.21-1.04,2.6c-2.77,3.12-5.9,7.98-9.36,14.57c-3.12,6.59-5.9,13.53-8.32,20.81
	c-2.43,6.94-3.64,13.35-3.64,19.25c0,6.59-1.39,9.88-4.16,9.88c-1.39,0-2.43-1.39-3.12-4.16c-0.69-2.77-1.04-5.38-1.04-7.8
	c0-6.94,1.04-14.39,3.12-22.37c2.43-7.98,3.99-13.7,4.68-17.17c-3.47,0-8.5,2.25-15.09,6.76s-13.35,10.41-20.29,17.69
	c-6.94,7.28-12.83,14.91-17.69,22.89c-4.86,7.63-7.28,14.91-7.28,21.85c0,9.02,2.25,17.52,6.76,25.49
	c4.86,7.98,10.75,15.43,17.69,22.37c7.28,6.94,14.39,13.18,21.33,18.73c2.77-1.04,6.76-2.77,11.97-5.2
	c5.2-2.77,11.27-8.32,18.21-16.65c7.28-8.32,14.91-21.16,22.89-38.5c0.69-1.04,1.73-1.56,3.12-1.56c2.08,0,3.12,1.39,3.12,4.16
	c0,2.43-0.69,5.2-2.08,8.32c-6.94,16.99-15.09,30.17-24.45,39.54c-9.02,9.02-18.21,15.95-27.57,20.81c0,0.69,0,1.56,0,2.6
	c0.35,0.69,0.52,1.39,0.52,2.08c0,7.28-2.6,13.35-7.8,18.21c-4.86,4.51-11.1,7.98-18.73,10.41
	C331.27,532.61,323.99,533.65,316.7,533.65z M248.03,360.4c-2.08,0-4.34-0.35-6.76-1.04c-2.08-1.04-4.16-2.08-6.24-3.12
	c-1.39-1.04-2.08-2.43-2.08-4.16c0-3.12,1.91-6.94,5.72-11.45c3.82-4.86,8.67-9.02,14.57-12.49c5.9-3.47,11.62-5.2,17.17-5.2
	c3.12,0,4.68,0.87,4.68,2.6c0,1.39-1.56,3.12-4.68,5.2c-3.82,2.77-6.59,6.59-8.32,11.45c-1.73,4.86-3.47,9.19-5.2,13.01
	C255.14,358.67,252.19,360.4,248.03,360.4z"/>
<path class="st1" d="M169.92,453.3h-14.63v-23.17h-20.32v23.17h-14.63v-56.9h14.63v22.35h20.32V396.4h14.63V453.3z"/>
<path class="st1" d="M475.44,453.3H460.8v-45.52h-17.07V396.4h48.77v11.38h-17.07V453.3z"/>
</svg>
