<?xml version="1.0" encoding="utf-8"?>
<!-- Generator: Adobe Illustrator 26.0.0, SVG Export Plug-In . SVG Version: 6.00 Build 0)  -->
<svg version="1.1" id="Layer_1" xmlns="http://www.w3.org/2000/svg" xmlns:xlink="http://www.w3.org/1999/xlink" x="0px" y="0px"
	 viewBox="0 0 841.89 841.89" style="enable-background:new 0 0 841.89 841.89;" xml:space="preserve">
<style type="text/css">
	.st0{fill:#EEE5DD;}
	.st1{fill:#F36F62;}
</style>
<path class="st0" d="M841.7,421.61c0,232.38-188.38,420.76-420.76,420.76c-232.38,0-420.76-188.38-420.76-420.76
	C0.18,189.23,188.57,0.85,420.94,0.85C653.33,0.85,841.7,189.23,841.7,421.61z"/>
<path class="st1" d="M460.36,618.2c-10.54,0-22.49-1.75-35.84-5.27c-12.65-2.81-23.89-6.68-33.73-11.59
	c-9.13-5.62-13.7-10.89-13.7-15.81c0-11.24,10.54-16.86,31.62-16.86c11.95,0,26-2.46,42.16-7.38c16.16-4.92,30.92-10.19,44.27-15.81
	c14.05-6.32,23.19-10.89,27.4-13.7c-2.81-5.62-10.19-15.11-22.13-28.46c-11.95-13.35-24.94-28.81-39-46.38
	c-13.35-17.57-24.59-35.13-33.73-52.7c-9.13,17.57-21.43,37.94-36.89,61.13c-14.76,23.19-29.16,44.27-43.21,63.24
	c-9.13,12.65-21.08,25.3-35.84,37.94c-14.76,12.65-30.57,18.97-47.43,18.97c-13.35,0-22.49-4.22-27.4-12.65
	c-4.92-8.43-7.38-21.43-7.38-39c0-9.13,0.35-18.97,1.05-29.51c0.7-10.54,2.11-22.49,4.22-35.84c6.32-47.78,13.35-85.72,21.08-113.83
	c7.73-28.81,17.57-43.21,29.51-43.21c9.84,0,18.62,5.62,26.35,16.86c7.73,11.24,13,19.32,15.81,24.24
	c-4.92,9.13-11.59,23.89-20.03,44.27c-7.73,20.38-14.76,41.81-21.08,64.29c-6.32,22.49-9.49,42.16-9.49,59.02
	c0,16.86,3.86,25.3,11.59,25.3c2.11,0,3.86-0.35,5.27-1.05c15.46-6.32,30.92-19.32,46.38-39c16.16-19.67,30.92-40.75,44.27-63.24
	c14.05-22.49,25.65-41.46,34.78-56.92c-4.22-10.54-6.32-21.08-6.32-31.62c0-19.67,5.27-37.94,15.81-54.81
	c10.54-17.57,23.54-33.38,39-47.43c16.16-14.76,32.32-27.4,48.48-37.94c16.86-11.24,31.27-20.38,43.21-27.4
	c4.92-2.81,10.19-4.22,15.81-4.22c11.24,0,21.78,3.86,31.62,11.59c10.54,7.73,15.81,15.11,15.81,22.13c0,0.7-0.7,2.46-2.11,5.27
	c-5.62,6.32-11.95,16.16-18.97,29.51c-6.32,13.35-11.95,27.4-16.86,42.16c-4.92,14.05-7.38,27.05-7.38,39
	c0,13.35-2.81,20.03-8.43,20.03c-2.81,0-4.92-2.81-6.32-8.43c-1.41-5.62-2.11-10.89-2.11-15.81c0-14.05,2.11-29.16,6.32-45.32
	c4.92-16.16,8.08-27.76,9.49-34.78c-7.03,0-17.22,4.57-30.57,13.7s-27.05,21.08-41.11,35.84c-14.05,14.76-26,30.21-35.84,46.38
	c-9.84,15.46-14.76,30.21-14.76,44.27c0,18.27,4.57,35.48,13.7,51.65c9.84,16.16,21.78,31.27,35.84,45.32
	c14.76,14.05,29.16,26.7,43.21,37.94c5.62-2.11,13.7-5.62,24.24-10.54c10.54-5.62,22.84-16.86,36.89-33.73
	c14.76-16.86,30.21-42.86,46.38-78c1.41-2.11,3.51-3.16,6.32-3.16c4.22,0,6.32,2.81,6.32,8.43c0,4.92-1.41,10.54-4.22,16.86
	c-14.05,34.43-30.57,61.13-49.54,80.1c-18.27,18.27-36.89,32.32-55.86,42.16c0,1.41,0,3.16,0,5.27c0.7,1.41,1.05,2.81,1.05,4.22
	c0,14.76-5.27,27.05-15.81,36.89c-9.84,9.13-22.49,16.16-37.94,21.08C489.87,616.09,475.11,618.2,460.36,618.2z M321.23,267.22
	c-4.22,0-8.78-0.7-13.7-2.11c-4.22-2.11-8.43-4.22-12.65-6.32c-2.81-2.11-4.22-4.92-4.22-8.43c0-6.32,3.86-14.05,11.59-23.19
	c7.73-9.84,17.57-18.27,29.51-25.3c11.95-7.03,23.54-10.54,34.78-10.54c6.32,0,9.49,1.76,9.49,5.27c0,2.81-3.16,6.32-9.49,10.54
	c-7.73,5.62-13.35,13.35-16.86,23.19c-3.51,9.84-7.03,18.62-10.54,26.35C335.64,263.71,329.66,267.22,321.23,267.22z"/>
<path class="st1" d="M183.11,508.77h-44.82V437.8H76.03v70.97H31.21V334.45h44.82v68.48h62.25v-68.48h44.82V508.77z"/>
<path class="st1" d="M771.02,508.29H726.2V368.84H673.9v-34.86h149.41v34.86h-52.29V508.29z"/>
</svg>
