<?xml version="1.0" encoding="utf-8"?>
<!-- Generator: Adobe Illustrator 26.0.0, SVG Export Plug-In . SVG Version: 6.00 Build 0)  -->
<svg version="1.1" id="Layer_1" xmlns="http://www.w3.org/2000/svg" xmlns:xlink="http://www.w3.org/1999/xlink" x="0px" y="0px"
	 viewBox="0 0 841.89 841.89" style="enable-background:new 0 0 841.89 841.89;" xml:space="preserve">
<style type="text/css">
	.st0{fill:#F5F5F5;}
	.st1{fill:none;}
</style>
<path class="st0" d="M420.94,0.85C188.57,0.85,0.18,189.23,0.18,421.61s188.39,420.76,420.76,420.76
	c232.39,0,420.76-188.38,420.76-420.76S653.33,0.85,420.94,0.85z M302.26,227.17c7.73-9.84,17.57-18.27,29.51-25.29
	c11.95-7.03,23.54-10.54,34.78-10.54c6.33,0,9.49,1.75,9.49,5.27c0,2.81-3.16,6.32-9.49,10.54c-7.73,5.62-13.35,13.35-16.86,23.18
	c-3.51,9.84-7.03,18.62-10.54,26.35c-3.51,7.03-9.49,10.54-17.92,10.54c-4.21,0-8.78-0.7-13.7-2.11c-4.22-2.1-8.43-4.21-12.65-6.32
	c-2.81-2.11-4.21-4.92-4.21-8.43C290.67,244.03,294.53,236.31,302.26,227.17z M183.11,508.77h-44.83V437.8H76.03v70.97H31.21V334.45
	h44.82v68.48h62.25v-68.48h44.83V508.77z M662.73,422.16c-14.06,34.43-30.57,61.13-49.54,80.1c-18.27,18.27-36.89,32.32-55.86,42.16
	v5.27c0.7,1.41,1.05,2.81,1.05,4.22c0,14.75-5.27,27.05-15.81,36.89c-9.84,9.13-22.49,16.16-37.94,21.08
	c-14.76,4.21-29.52,6.32-44.27,6.32c-10.54,0-22.49-1.75-35.84-5.27c-12.64-2.81-23.89-6.68-33.72-11.59
	c-9.14-5.62-13.71-10.89-13.71-15.81c0-11.24,10.54-16.87,31.62-16.87c11.95,0,26-2.46,42.16-7.37
	c16.16-4.92,30.92-10.19,44.27-15.81c14.05-6.33,23.19-10.9,27.4-13.71c-2.81-5.62-10.18-15.1-22.13-28.45
	c-11.94-13.35-24.94-28.81-39-46.38c-13.35-17.57-24.59-35.13-33.72-52.7c-9.14,17.57-21.44,37.95-36.89,61.13
	c-14.76,23.19-29.16,44.27-43.22,63.24c-9.13,12.65-21.08,25.3-35.83,37.95c-14.76,12.64-30.57,18.97-47.43,18.97
	c-13.35,0-22.49-4.22-27.41-12.65c-4.92-8.43-7.38-21.43-7.38-39c0-9.13,0.36-18.97,1.06-29.51c0.7-10.54,2.11-22.48,4.21-35.83
	c6.33-47.79,13.36-85.73,21.08-113.84c7.73-28.81,17.57-43.21,29.52-43.21c9.83,0,18.62,5.62,26.35,16.86
	c7.73,11.25,13,19.33,15.81,24.25c-4.92,9.13-11.6,23.89-20.03,44.26c-7.73,20.38-14.76,41.81-21.08,64.3
	c-6.32,22.48-9.49,42.16-9.49,59.02c0,16.86,3.87,25.3,11.6,25.3c2.11,0,3.86-0.36,5.27-1.06c15.46-6.32,30.92-19.32,46.37-39
	c16.17-19.67,30.92-40.75,44.27-63.23c14.06-22.49,25.65-41.46,34.78-56.92c-4.21-10.54-6.32-21.08-6.32-31.62
	c0-19.67,5.27-37.94,15.81-54.81c10.54-17.56,23.54-33.37,39-47.43c16.16-14.75,32.32-27.4,48.48-37.94
	c16.86-11.24,31.27-20.38,43.21-27.4c4.92-2.82,10.19-4.22,15.81-4.22c11.25,0,21.79,3.86,31.62,11.59
	c10.54,7.73,15.81,15.11,15.81,22.14c0,0.7-0.7,2.46-2.1,5.27c-5.63,6.32-11.95,16.16-18.98,29.51
	c-6.32,13.35-11.94,27.4-16.86,42.16c-4.92,14.05-7.38,27.05-7.38,39c0,13.35-2.81,20.02-8.43,20.02c-2.81,0-4.92-2.81-6.32-8.43
	c-1.41-5.62-2.11-10.89-2.11-15.81c0-14.05,2.11-29.16,6.32-45.32c4.92-16.16,8.08-27.76,9.49-34.78c-7.03,0-17.22,4.56-30.57,13.7
	c-13.35,9.13-27.05,21.08-41.1,35.83c-14.06,14.76-26,30.22-35.84,46.38c-9.84,15.46-14.75,30.21-14.75,44.27
	c0,18.27,4.56,35.48,13.7,51.64c9.83,16.16,21.78,31.27,35.83,45.32c14.76,14.06,29.16,26.71,43.22,37.95
	c5.62-2.11,13.7-5.62,24.24-10.54c10.54-5.62,22.83-16.87,36.89-33.73c14.75-16.86,30.21-42.86,46.37-77.99
	c1.41-2.11,3.52-3.17,6.33-3.17c4.21,0,6.32,2.81,6.32,8.44C666.94,410.21,665.54,415.84,662.73,422.16z M771.02,368.84v139.45
	H726.2V368.84h-52.3v-34.87h149.41v34.87H771.02z"/>
<path class="st1" d="M376.04,196.61c0,2.81-3.16,6.32-9.49,10.54c-7.73,5.62-13.35,13.35-16.86,23.18
	c-3.51,9.84-7.03,18.62-10.54,26.35c-3.51,7.03-9.49,10.54-17.92,10.54c-4.21,0-8.78-0.7-13.7-2.11c-4.22-2.1-8.43-4.21-12.65-6.32
	c-2.81-2.11-4.21-4.92-4.21-8.43c0-6.33,3.86-14.05,11.59-23.19c7.73-9.84,17.57-18.27,29.51-25.29
	c11.95-7.03,23.54-10.54,34.78-10.54C372.88,191.34,376.04,193.09,376.04,196.61z"/>
<path class="st1" d="M666.94,405.3c0,4.91-1.4,10.54-4.21,16.86c-14.06,34.43-30.57,61.13-49.54,80.1
	c-18.27,18.27-36.89,32.32-55.86,42.16v5.27c0.7,1.41,1.05,2.81,1.05,4.22c0,14.75-5.27,27.05-15.81,36.89
	c-9.84,9.13-22.49,16.16-37.94,21.08c-14.76,4.21-29.52,6.32-44.27,6.32c-10.54,0-22.49-1.75-35.84-5.27
	c-12.64-2.81-23.89-6.68-33.72-11.59c-9.14-5.62-13.71-10.89-13.71-15.81c0-11.24,10.54-16.87,31.62-16.87
	c11.95,0,26-2.46,42.16-7.37c16.16-4.92,30.92-10.19,44.27-15.81c14.05-6.33,23.19-10.9,27.4-13.71
	c-2.81-5.62-10.18-15.1-22.13-28.45c-11.94-13.35-24.94-28.81-39-46.38c-13.35-17.57-24.59-35.13-33.72-52.7
	c-9.14,17.57-21.44,37.95-36.89,61.13c-14.76,23.19-29.16,44.27-43.22,63.24c-9.13,12.65-21.08,25.3-35.83,37.95
	c-14.76,12.64-30.57,18.97-47.43,18.97c-13.35,0-22.49-4.22-27.41-12.65c-4.92-8.43-7.38-21.43-7.38-39
	c0-9.13,0.36-18.97,1.06-29.51c0.7-10.54,2.11-22.48,4.21-35.83c6.33-47.79,13.36-85.73,21.08-113.84
	c7.73-28.81,17.57-43.21,29.52-43.21c9.83,0,18.62,5.62,26.35,16.86c7.73,11.25,13,19.33,15.81,24.25
	c-4.92,9.13-11.6,23.89-20.03,44.26c-7.73,20.38-14.76,41.81-21.08,64.3c-6.32,22.48-9.49,42.16-9.49,59.02
	c0,16.86,3.87,25.3,11.6,25.3c2.11,0,3.86-0.36,5.27-1.06c15.46-6.32,30.92-19.32,46.37-39c16.17-19.67,30.92-40.75,44.27-63.23
	c14.06-22.49,25.65-41.46,34.78-56.92c-4.21-10.54-6.32-21.08-6.32-31.62c0-19.67,5.27-37.94,15.81-54.81
	c10.54-17.56,23.54-33.37,39-47.43c16.16-14.75,32.32-27.4,48.48-37.94c16.86-11.24,31.27-20.38,43.21-27.4
	c4.92-2.82,10.19-4.22,15.81-4.22c11.25,0,21.79,3.86,31.62,11.59c10.54,7.73,15.81,15.11,15.81,22.14c0,0.7-0.7,2.46-2.1,5.27
	c-5.63,6.32-11.95,16.16-18.98,29.51c-6.32,13.35-11.94,27.4-16.86,42.16c-4.92,14.05-7.38,27.05-7.38,39
	c0,13.35-2.81,20.02-8.43,20.02c-2.81,0-4.92-2.81-6.32-8.43c-1.41-5.62-2.11-10.89-2.11-15.81c0-14.05,2.11-29.16,6.32-45.32
	c4.92-16.16,8.08-27.76,9.49-34.78c-7.03,0-17.22,4.56-30.57,13.7c-13.35,9.13-27.05,21.08-41.1,35.83
	c-14.06,14.76-26,30.22-35.84,46.38c-9.84,15.46-14.75,30.21-14.75,44.27c0,18.27,4.56,35.48,13.7,51.64
	c9.83,16.16,21.78,31.27,35.83,45.32c14.76,14.06,29.16,26.71,43.22,37.95c5.62-2.11,13.7-5.62,24.24-10.54
	c10.54-5.62,22.83-16.87,36.89-33.73c14.75-16.86,30.21-42.86,46.37-77.99c1.41-2.11,3.52-3.17,6.33-3.17
	C664.83,396.86,666.94,399.67,666.94,405.3z"/>
<polygon class="st1" points="183.11,334.45 183.11,508.77 138.28,508.77 138.28,437.8 76.03,437.8 76.03,508.77 31.21,508.77 
	31.21,334.45 76.03,334.45 76.03,402.93 138.28,402.93 138.28,334.45 "/>
<polygon class="st1" points="823.31,333.97 823.31,368.84 771.02,368.84 771.02,508.29 726.2,508.29 726.2,368.84 673.9,368.84 
	673.9,333.97 "/>
</svg>
